<svg width="512" height="512" viewBox="0 0 400 400" xmlns="http://www.w3.org/2000/svg">
  <rect width="400" height="400" rx="84" fill="#f0f9f4"/>
  <g transform="translate(37,92) scale(1.1)">
    <rect x="6"   y="18" width="6"  height="5" rx="2.5" fill="#1a9460"/>
    <rect x="20"  y="18" width="10" height="5" rx="2.5" fill="#1a9460"/>
    <rect x="40"  y="18" width="16" height="5" rx="2.5" fill="#1a9460"/>
    <rect x="68"  y="18" width="22" height="5" rx="2.5" fill="#1a9460"/>
    <rect x="104" y="18" width="28" height="5" rx="2.5" fill="#1a9460"/>
    <rect x="145" y="18" width="18" height="5" rx="2.5" fill="#1a9460"/>
    <rect x="10"  y="36" width="8"  height="5" rx="2.5" fill="#1a9460"/>
    <rect x="28"  y="36" width="14" height="5" rx="2.5" fill="#1a9460"/>
    <rect x="54"  y="36" width="20" height="5" rx="2.5" fill="#1a9460"/>
    <rect x="88"  y="36" width="28" height="5" rx="2.5" fill="#1a9460"/>
    <rect x="130" y="36" width="34" height="5" rx="2.5" fill="#1a9460"/>
    <rect x="4"   y="78" width="6"  height="5" rx="2.5" fill="#1a9460"/>
    <rect x="18"  y="78" width="12" height="5" rx="2.5" fill="#1a9460"/>
    <rect x="40"  y="78" width="18" height="5" rx="2.5" fill="#1a9460"/>
    <rect x="72"  y="78" width="26" height="5" rx="2.5" fill="#1a9460"/>
    <rect x="114" y="78" width="32" height="5" rx="2.5" fill="#1a9460"/>
    <rect x="156" y="78" width="8"  height="5" rx="2.5" fill="#1a9460"/>
    <rect x="8"   y="104" width="8"  height="5" rx="2.5" fill="#1a9460"/>
    <rect x="26"  y="104" width="14" height="5" rx="2.5" fill="#1a9460"/>
    <rect x="52"  y="104" width="22" height="5" rx="2.5" fill="#1a9460"/>
    <rect x="88"  y="104" width="30" height="5" rx="2.5" fill="#1a9460"/>
    <rect x="132" y="104" width="32" height="5" rx="2.5" fill="#1a9460"/>
    <rect x="6"   y="130" width="6"  height="5" rx="2.5" fill="#1a9460"/>
    <rect x="20"  y="130" width="12" height="5" rx="2.5" fill="#1a9460"/>
    <rect x="44"  y="130" width="18" height="5" rx="2.5" fill="#1a9460"/>
    <rect x="76"  y="130" width="26" height="5" rx="2.5" fill="#1a9460"/>
    <rect x="116" y="130" width="32" height="5" rx="2.5" fill="#1a9460"/>
    <rect x="158" y="130" width="6"  height="5" rx="2.5" fill="#1a9460"/>
    <rect x="10"  y="156" width="8"  height="5" rx="2.5" fill="#1a9460"/>
    <rect x="28"  y="156" width="14" height="5" rx="2.5" fill="#1a9460"/>
    <rect x="56"  y="156" width="20" height="5" rx="2.5" fill="#1a9460"/>
    <rect x="90"  y="156" width="28" height="5" rx="2.5" fill="#1a9460"/>
    <rect x="132" y="156" width="32" height="5" rx="2.5" fill="#1a9460"/>
    <g transform="rotate(-8,217,47)"><rect x="168" y="27" width="98" height="30" rx="8" fill="#1a9460"/></g>
    <g transform="rotate(-2,216,38)"><rect x="170" y="18" width="94" height="28" rx="8" fill="#1a9460"/></g>
    <g transform="rotate(5,214,30)"> <rect x="172" y="9"  width="90" height="26" rx="8" fill="#1a9460"/></g>
    <rect x="163" y="66" width="132" height="122" rx="18" fill="#1a9460"/>
    <rect x="178" y="80" width="102" height="20"  rx="8"  fill="#c8e8d6"/>
    <circle cx="284" cy="127" r="13" fill="#c8e8d6"/>
    <circle cx="284" cy="127" r="7"  fill="#1a9460"/>
  </g>
</svg>
